<?xml version="1.0" encoding="UTF-8" standalone="no"?>
<svg
   xmlns:dc="http://purl.org/dc/elements/1.1/"
   xmlns:cc="http://creativecommons.org/ns#"
   xmlns:rdf="http://www.w3.org/1999/02/22-rdf-syntax-ns#"
   xmlns:svg="http://www.w3.org/2000/svg"
   xmlns="http://www.w3.org/2000/svg"
   xmlns:sodipodi="http://sodipodi.sourceforge.net/DTD/sodipodi-0.dtd"
   xmlns:inkscape="http://www.inkscape.org/namespaces/inkscape"
   viewBox="0 0 565 290.92"
   id="svg4250"
   version="1.1"
   inkscape:version="0.91 r13725"
   sodipodi:docname="mouse-controls.svg">
  <metadata
     id="metadata4300">
    <rdf:RDF>
      <cc:Work
         rdf:about="">
        <dc:format>image/svg+xml</dc:format>
        <dc:type
           rdf:resource="http://purl.org/dc/dcmitype/StillImage" />
      </cc:Work>
    </rdf:RDF>
  </metadata>
  <defs
     id="defs4298" />
  <sodipodi:namedview
     pagecolor="#ffffff"
     bordercolor="#666666"
     borderopacity="1"
     objecttolerance="10"
     gridtolerance="10"
     guidetolerance="10"
     inkscape:pageopacity="0"
     inkscape:pageshadow="2"
     inkscape:window-width="1920"
     inkscape:window-height="1018"
     id="namedview4296"
     showgrid="false"
     inkscape:zoom="1.9723899"
     inkscape:cx="238.76269"
     inkscape:cy="145.46001"
     inkscape:window-x="-8"
     inkscape:window-y="-8"
     inkscape:window-maximized="1"
     inkscape:current-layer="svg4250" />
  <g
     fill="#23b5e9"
     stroke="#23b5e9"
     id="g4252"
     style="stroke:#fd0203;stroke-opacity:1">
    <path
       d="M33.906 169.41h33.422"
       stroke-width="20.344"
       id="path4254"
       style="stroke:#fd0203;stroke-opacity:1" />
    <path
       transform="matrix(0 1.4731 1.0164 0 -109.56 -301.66)"
       d="M320 123.79l3.712 6.43 3.711 6.428h-14.846l3.711-6.429z"
       stroke-width="16"
       id="path4256"
       style="stroke:#fd0203;stroke-opacity:1" />
  </g>
  <g
     fill="#23b5e9"
     stroke="#23b5e9"
     id="g4258"
     style="fill:#ff0000;stroke:#fd0000;stroke-opacity:1">
    <path
       d="M313.45 170.52h-33.421"
       stroke-width="20.344"
       id="path4260"
       style="fill:#ff0000;stroke:#fd0000;stroke-opacity:1" />
    <path
       transform="matrix(0 1.4731 -1.0164 0 456.91 -300.55)"
       d="M320 123.79l3.712 6.43 3.711 6.428h-14.846l3.711-6.429z"
       stroke-width="16"
       id="path4262"
       style="fill:#ff0000;stroke:#fd0000;stroke-opacity:1" />
  </g>
  <g
     fill="none"
     stroke="#fff"
     stroke-width="8.533"
     transform="translate(-40.534 -61.6)"
     id="g4264">
    <rect
       x="128"
       y="92.253"
       width="170.67"
       height="256"
       rx="64"
       ry="85.333"
       id="rect4266" />
    <path
       d="M128 220.25s85.333 21.333 170.67 0"
       id="path4268" />
    <rect
       x="199.2"
       y="129.48"
       width="29.163"
       height="65.734"
       rx="3.978"
       ry="27.417"
       id="rect4270" />
    <path
       d="M213.33 127.52V94.374"
       id="path4272" />
  </g>
  <path
     d="M172.796 134.92v32.218"
     fill="#fff"
     stroke="#fff"
     stroke-width="8.533"
     id="path4274" />
  <path
     d="M165.972 163.695c-8.942-.273-14.43-.554-22.043-1.13-17.376-1.313-36.735-4.029-51.687-7.25l-.38-.081-.033-21.007c-.037-23.83-.007-25.096.745-31.431 1.995-16.808 8.082-32.696 17.12-44.683 8.982-11.916 20.44-19.693 32.703-22.197 4.222-.862 5.468-.932 16.641-.932h9.432v28.558l-2.96.001c-3.373.001-4.05.08-5.06.59-2.21 1.115-3.402 3.328-4.36 8.096-.852 4.242-1.372 9.628-1.636 16.96-.18 5-.072 23.557.159 27.18.653 10.258 1.822 16.435 3.6 19.016.849 1.233 2.135 2.15 3.394 2.416.35.075 1.803.123 3.719.123h3.144v25.843l-.788-.022-1.71-.05z"
     fill="#23b5e9"
     id="path4276"
     style="stroke:#ff0000;stroke-opacity:1;fill:#ff0000;fill-opacity:1" />
  <g
     stroke="#fff"
     stroke-width="8.533"
     id="g4278">
    <g
       fill="none"
       transform="translate(-40.534 -61.6)"
       id="g4280">
      <rect
         x="430.6"
         y="92.253"
         width="170.67"
         height="256"
         rx="64"
         ry="85.333"
         id="rect4282" />
      <path
         d="M430.6 220.25s85.333 21.333 170.67 0"
         id="path4284" />
      <rect
         x="501.8"
         y="129.48"
         width="29.163"
         height="65.734"
         rx="3.978"
         ry="27.417"
         id="rect4286" />
      <path
         d="M515.94 127.52V94.372"
         id="path4288" />
    </g>
    <path
       d="M475.406 134.92v32.218"
       fill="#fff"
       id="path4290" />
  </g>
  <path
     transform="matrix(-1.5817 0 0 1.5431 981.59 -166.33)"
     d="M320 123.79l3.712 6.43 3.711 6.428h-14.846l3.711-6.429z"
     fill="#23b5e9"
     stroke="#23b5e9"
     stroke-width="16"
     id="path4292"
     style="fill:#ff0000;stroke:#f90505;stroke-opacity:1" />
  <path
     d="M320 123.79l3.712 6.43 3.711 6.428h-14.846l3.711-6.429z"
     id="path4294"
     style="stroke:#ff0000;stroke-opacity:1;fill:none;fill-opacity:1;stroke-width:15.99968466;stroke-miterlimit:4;stroke-dasharray:none"
     transform="matrix(-1.5817 0 0 -1.5431 982 367.21)"
     stroke-width="16"
     stroke="#23b5e9"
     fill="#23b5e9" />
</svg>
